<svg xmlns="http://www.w3.org/2000/svg" width="96" height="96" fill="none"><path fill-rule="evenodd" d="M26.25 26c0-8.698 7.052-15.75 15.75-15.75S57.75 17.302 57.75 26v15.75h-31.5V26zM42 13.75c-6.765 0-12.25 5.485-12.25 12.25v12.25h24.5V26c0-6.765-5.484-12.25-12.25-12.25z" fill="#003087"/><path d="M22.469 28h37.062a4 4 0 0 1 3.96 3.434l6.857 48A4 4 0 0 1 66.388 84H15.612a4 4 0 0 1-3.96-4.566l6.857-48A4 4 0 0 1 22.469 28z" fill="#0070e0"/><g fill="#003087"><path fill-rule="evenodd" d="M54.25 44c0-5.385 4.365-9.75 9.75-9.75A9.75 9.75 0 0 1 73.75 44v9.75h-19.5V44zM64 37.75A6.25 6.25 0 0 0 57.75 44v6.25h12.5V44A6.25 6.25 0 0 0 64 37.75z"/><path d="M51.581 48h24.325a4 4 0 0 1 3.951 3.377l4.414 28A4 4 0 0 1 80.32 84H47.608a4 4 0 0 1-3.96-4.562l3.973-28A4 4 0 0 1 51.581 48z"/></g><path d="M47.608 84h18.786a4 4 0 0 0 3.954-4.566L65.858 48H51.581a4 4 0 0 0-3.96 3.438l-3.973 28A4 4 0 0 0 47.608 84z" fill="#faf8f5"/><path d="M58 54a2 2 0 1 1-4 0 2 2 0 1 1 4 0z" fill="#003087"/><path d="M74 54a2 2 0 1 1-4 0 2 2 0 1 1 4 0z" fill="#0070e0"/><path fill-rule="evenodd" d="M52 36.75a1 1 0 0 1-1 1H33a1 1 0 0 1-1-1v-1.5a1 1 0 0 1 1-1h18a1 1 0 0 1 1 1v1.5z" fill="#003087"/></svg>