<svg xmlns="http://www.w3.org/2000/svg" width="96" height="96" fill="none"><path d="M12 16a4 4 0 0 1 4-4h48a4 4 0 0 1 4 4v48a4 4 0 0 1-4 4H16a4 4 0 0 1-4-4V16z" fill="#0070e0"/><path d="M28 32a4 4 0 0 1 4-4h48a4 4 0 0 1 4 4v48a4 4 0 0 1-4 4H32a4 4 0 0 1-4-4V32z" fill="#003087"/><path d="M68 28v36a4 4 0 0 1-4 4H28V32a4 4 0 0 1 4-4h36z" fill="#faf8f5"/><path d="M42.226 57.75l2.305 2.305a1 1 0 0 1 0 1.414l-1.061 1.061a1 1 0 0 1-1.414 0l-5.823-5.823a1 1 0 0 1 0-1.414l5.823-5.823a1 1 0 0 1 1.414 0l1.061 1.061a1 1 0 0 1 0 1.414l-2.306 2.306H59a1 1 0 0 1 1 1v1.5a1 1 0 0 1-1 1H42.226z" fill="#0070e0"/><path d="M53.774 41.75H37a1 1 0 0 1-1-1v-1.5a1 1 0 0 1 1-1h16.774l-2.305-2.305a1 1 0 0 1 0-1.414l1.061-1.061a1 1 0 0 1 1.414 0l5.823 5.823a1 1 0 0 1 0 1.414l-5.823 5.823a1 1 0 0 1-1.414 0l-1.061-1.061a1 1 0 0 1 0-1.414l2.306-2.306z" fill="#003087"/></svg>