<svg xmlns="http://www.w3.org/2000/svg" width="96" height="96" fill="none"><path d="M4 24a4 4 0 0 1 4-4h80a4 4 0 0 1 4 4v48a4 4 0 0 1-4 4H8a4 4 0 0 1-4-4V24z" fill="#0070e0"/><path d="M72 48c0 13.255-10.745 24-24 24S24 61.255 24 48s10.745-24 24-24 24 10.745 24 24z" fill="#faf8f5"/><path fill-rule="evenodd" d="M53.378 36.791v-3.013a1.75 1.75 0 0 0-.133-.68c-.089-.216-.221-.412-.387-.577a1.79 1.79 0 0 0-.582-.386 1.81 1.81 0 0 0-.687-.136h-7.177a1.81 1.81 0 0 0-.687.136 1.79 1.79 0 0 0-.582.386c-.166.165-.298.361-.387.577a1.75 1.75 0 0 0-.133.68v3.013a12.41 12.41 0 0 0-1.748 1.004l-2.602-1.477a1.81 1.81 0 0 0-1.332-.171c-.45.116-.836.401-1.077.794l-3.588 6.137a1.77 1.77 0 0 0-.171 1.344 1.79 1.79 0 0 0 .832 1.077l2.562 1.486v1.004 1.004l-2.602 1.476a1.79 1.79 0 0 0-.832 1.077 1.77 1.77 0 0 0 .171 1.344l3.629 6.147c.118.202.275.378.462.519a1.8 1.8 0 0 0 .628.305 1.81 1.81 0 0 0 .698.043c.233-.031.458-.107.662-.225l2.602-1.477c.554.381 1.139.717 1.748 1.004v3.013a1.75 1.75 0 0 0 .133.68c.089.216.221.412.387.577a1.79 1.79 0 0 0 .582.386 1.81 1.81 0 0 0 .687.136h7.177a1.81 1.81 0 0 0 .687-.136 1.79 1.79 0 0 0 .582-.386c.166-.165.298-.361.387-.577a1.75 1.75 0 0 0 .133-.68v-3.013c.61-.287 1.194-.623 1.748-1.004l2.602 1.477a1.81 1.81 0 0 0 1.337.162c.45-.12.835-.409 1.072-.805l3.578-6.137c.118-.201.196-.423.227-.654a1.75 1.75 0 0 0-.044-.69 1.76 1.76 0 0 0-.308-.621 1.78 1.78 0 0 0-.526-.456l-2.602-1.486V47.99v-1.004l2.602-1.477a1.78 1.78 0 0 0 .526-.456 1.76 1.76 0 0 0 .308-.62 1.75 1.75 0 0 0 .044-.69c-.032-.231-.109-.453-.227-.654l-3.578-6.147c-.118-.201-.275-.378-.462-.519s-.4-.245-.628-.305a1.81 1.81 0 0 0-.698-.043c-.233.031-.458.108-.662.225l-2.551 1.486a12.42 12.42 0 0 0-1.799-.994zm2.308 6.639a8.91 8.91 0 0 0-3.267-3.148 9.04 9.04 0 0 0-8.826 0c-1.346.753-2.471 1.838-3.267 3.148l-.183.301c-.731 1.309-1.114 2.779-1.114 4.274s.383 2.965 1.114 4.274l.163.281c.797 1.31 1.924 2.395 3.27 3.148a9.05 9.05 0 0 0 8.83 0c1.347-.753 2.473-1.837 3.27-3.148l.163-.281c.727-1.312 1.108-2.783 1.108-4.279s-.381-2.967-1.108-4.279l-.152-.291z" fill="#003087"/></svg>